<?xml version="1.0" encoding="UTF-8"?>
<svg xmlns="http://www.w3.org/2000/svg" xmlns:xlink="http://www.w3.org/1999/xlink" width="45pt" height="37pt" viewBox="0 0 45 37" version="1.1">
<defs>
<linearGradient id="linear0" gradientUnits="userSpaceOnUse" x1="128.0295" y1="0" x2="128.0295" y2="204.5005" gradientTransform="matrix(0.174885,0,0,0.180488,0,0)">
<stop offset="0" style="stop-color:rgb(14.509804%,21.960784%,49.019608%);stop-opacity:1;"/>
<stop offset="0.9951" style="stop-color:rgb(5.490196%,45.490196%,79.215686%);stop-opacity:1;"/>
</linearGradient>
</defs>
<g id="surface1">
<path style=" stroke:none;fill-rule:nonzero;fill:url(#linear0);" d="M 44.78125 21.308594 C 44.78125 16.648438 41.613281 12.8125 37.554688 12.359375 C 37.46875 12.117188 37.386719 11.878906 37.296875 11.644531 C 38.441406 11.242188 39.265625 10.203125 39.265625 8.980469 C 39.265625 7.410156 37.910156 6.136719 36.246094 6.136719 C 35.570312 6.136719 34.945312 6.351562 34.4375 6.707031 C 31.132812 2.609375 26.136719 0 20.546875 0 C 12.980469 0 6.507812 4.777344 3.839844 11.554688 C 3.824219 11.554688 3.8125 11.554688 3.796875 11.554688 C 1.699219 11.554688 0 13.351562 0 15.570312 C 0 17.324219 1.066406 18.816406 2.554688 19.363281 C 3.019531 29.132812 10.898438 36.910156 20.546875 36.910156 C 24.300781 36.910156 27.785156 35.734375 30.667969 33.726562 C 31.179688 35.113281 32.460938 36.097656 33.972656 36.097656 C 35.925781 36.097656 37.515625 34.4375 37.515625 32.398438 C 37.515625 31.621094 37.28125 30.898438 36.886719 30.300781 C 41.257812 30.210938 44.78125 26.21875 44.78125 21.308594 Z M 44.78125 21.308594 "/>
<path style=" stroke:none;fill-rule:nonzero;fill:rgb(95.686275%,94.901961%,94.901961%);fill-opacity:1;" d="M 2.097656 14.257812 L 5.902344 14.257812 L 8.832031 21.792969 L 11.890625 14.257812 L 17.140625 14.257812 L 17.140625 29.511719 C 17.140625 29.511719 14.921875 27.882812 14.429688 27.371094 C 13.933594 26.859375 13.769531 19.328125 13.769531 19.328125 L 9.617188 28.160156 L 8 28.207031 Z M 2.097656 14.257812 "/>
<path style=" stroke:none;fill-rule:nonzero;fill:rgb(95.686275%,94.901961%,94.901961%);fill-opacity:1;" d="M 17.464844 11.464844 C 17.464844 10.613281 16.65625 9.925781 15.648438 9.925781 C 14.648438 9.925781 13.839844 10.613281 13.839844 11.464844 C 13.839844 12.308594 14.648438 12.996094 15.648438 12.996094 C 16.65625 12.996094 17.464844 12.308594 17.464844 11.464844 Z M 17.464844 11.464844 "/>
<path style=" stroke:none;fill-rule:nonzero;fill:rgb(95.686275%,94.901961%,94.901961%);fill-opacity:1;" d="M 18.363281 14.5625 L 22.152344 14.5625 L 26.464844 24.367188 L 33.984375 8.363281 L 37.367188 8.605469 L 27.046875 31.585938 L 25.824219 31.585938 Z M 18.363281 14.5625 "/>
<path style=" stroke:none;fill-rule:nonzero;fill:rgb(95.686275%,94.901961%,94.901961%);fill-opacity:1;" d="M 39.105469 27.488281 C 37.386719 28.132812 35.796875 28.117188 34.332031 27.433594 C 32.871094 26.75 31.816406 25.503906 31.179688 23.695312 L 31.066406 23.378906 C 30.640625 22.164062 30.484375 20.992188 30.601562 19.863281 C 30.71875 18.734375 31.101562 17.753906 31.753906 16.921875 C 32.40625 16.09375 33.269531 15.476562 34.335938 15.078125 C 35.9375 14.472656 37.386719 14.519531 38.671875 15.214844 C 39.964844 15.917969 40.945312 17.222656 41.617188 19.136719 L 42.085938 20.457031 L 34.621094 23.261719 C 35 24.011719 35.527344 24.53125 36.207031 24.820312 C 36.882812 25.101562 37.613281 25.097656 38.394531 24.804688 C 39.601562 24.351562 40.378906 23.550781 40.742188 22.394531 L 42.910156 23.589844 C 42.679688 24.453125 42.230469 25.226562 41.570312 25.910156 C 40.902344 26.597656 40.078125 27.121094 39.105469 27.488281 Z M 35.242188 17.683594 C 34.621094 17.917969 34.195312 18.324219 33.964844 18.902344 C 33.730469 19.484375 33.699219 20.199219 33.878906 21.046875 L 38.234375 19.40625 L 38.144531 19.148438 C 37.875 18.4375 37.488281 17.953125 36.992188 17.695312 C 36.488281 17.4375 35.90625 17.433594 35.242188 17.683594 Z M 35.242188 17.683594 "/>
</g>
</svg>
