<?xml version="1.0" encoding="utf-8"?>
<!-- Generator: Adobe Illustrator 16.0.3, SVG Export Plug-In . SVG Version: 6.00 Build 0)  -->
<!DOCTYPE svg PUBLIC "-//W3C//DTD SVG 1.1//EN" "http://www.w3.org/Graphics/SVG/1.1/DTD/svg11.dtd">
<svg version="1.1" id="Capa_1" xmlns="http://www.w3.org/2000/svg" xmlns:xlink="http://www.w3.org/1999/xlink" x="0px" y="0px"
	 width="256.061px" height="204.5px" viewBox="0 0 256.061 204.5" enable-background="new 0 0 256.061 204.5" xml:space="preserve">
<linearGradient id="SVGID_1_" gradientUnits="userSpaceOnUse" x1="128.0295" y1="0" x2="128.0295" y2="204.5005">
	<stop  offset="0" style="stop-color:#25387D"/>
	<stop  offset="0.9951" style="stop-color:#0E74CA"/>
</linearGradient>
<path fill="url(#SVGID_1_)" d="M256.06,118.057c0-25.818-18.115-47.052-41.323-49.591c-0.471-1.333-0.964-2.657-1.487-3.964
	c6.564-2.228,11.25-7.982,11.25-14.751c0-8.698-7.723-15.75-17.25-15.75c-3.875,0-7.439,1.181-10.319,3.151
	C178.038,14.46,149.47,0,117.5,0C74.237,0,37.209,26.482,21.954,64.006C21.879,64.005,21.804,64,21.729,64
	C9.728,64,0,73.962,0,86.25c0,9.74,6.114,18.012,14.625,21.027C17.265,161.412,62.313,204.5,117.5,204.5
	c21.452,0,41.37-6.513,57.863-17.651C178.284,194.535,185.628,200,194.25,200c11.184,0,20.25-9.178,20.25-20.5
	c0-4.316-1.324-8.316-3.575-11.619C235.928,167.379,256.06,145.272,256.06,118.057z"/>
<g>
	<path fill="#F4F2F2" d="M12,79h21.75l16.75,41.734L68,79h30v84.5c0,0-12.667-9.034-15.5-11.852
		c-2.833-2.816-3.75-44.568-3.75-44.568L55,156.029l-9.25,0.257L12,79z"/>
	<ellipse fill="#F4F2F2" cx="89.5" cy="63.5" rx="10.375" ry="8.5"/>
	<g>
		<polygon fill="#F4F2F2" points="105,80.667 126.667,80.667 151.334,135 194.334,46.333 213.667,47.667 154.667,175 147.667,175 		
			"/>
		<g>
			<path fill="#F4F2F2" d="M223.607,152.302c-9.828,3.577-18.926,3.476-27.294-0.308c-8.368-3.781-14.378-10.691-18.03-20.727
				l-0.631-1.732c-2.45-6.73-3.341-13.225-2.669-19.477c0.669-6.254,2.867-11.685,6.592-16.29
				c3.726-4.606,8.643-8.021,14.755-10.246c9.167-3.337,17.438-3.072,24.806,0.792c7.369,3.866,12.985,11.104,16.849,21.717
				l2.66,7.31l-42.68,15.533c2.173,4.168,5.194,7.043,9.067,8.625c3.874,1.584,8.04,1.563,12.5-0.061
				c6.896-2.51,11.375-6.969,13.438-13.379l12.382,6.647c-1.304,4.776-3.858,9.062-7.667,12.856
				C233.875,147.359,229.184,150.271,223.607,152.302z M201.521,97.979c-3.554,1.293-5.994,3.544-7.327,6.753
				c-1.334,3.211-1.495,7.168-0.484,11.873l24.901-9.063l-0.521-1.431c-1.532-3.952-3.727-6.641-6.584-8.067
				C208.648,96.617,205.319,96.596,201.521,97.979z"/>
		</g>
	</g>
</g>
</svg>
